<?xml version="1.0" encoding="UTF-8" standalone="no"?>
<!-- Created with Inkscape (http://www.inkscape.org/) -->

<svg
   xmlns:dc="http://purl.org/dc/elements/1.1/"
   xmlns:cc="http://creativecommons.org/ns#"
   xmlns:rdf="http://www.w3.org/1999/02/22-rdf-syntax-ns#"
   xmlns:svg="http://www.w3.org/2000/svg"
   xmlns="http://www.w3.org/2000/svg"
   xmlns:sodipodi="http://sodipodi.sourceforge.net/DTD/sodipodi-0.dtd"
   xmlns:inkscape="http://www.inkscape.org/namespaces/inkscape"
   width="210mm"
   height="297mm"
   viewBox="0 50 210 297"
   version="1.1"
   id="svg3751"
   inkscape:version="0.92.5 (2060ec1f9f, 2020-04-08)"
   sodipodi:docname="drawing.svg">
  <defs
     id="defs3745" />
  <sodipodi:namedview
     id="base"
     pagecolor="#ffffff"
     bordercolor="#666666"
     borderopacity="1.0"
     inkscape:pageopacity="0.0"
     inkscape:pageshadow="2"
     inkscape:zoom="0.35"
     inkscape:cx="400"
     inkscape:cy="560"
     inkscape:document-units="mm"
     inkscape:current-layer="layer1"
     showgrid="false"
     inkscape:window-width="1279"
     inkscape:window-height="673"
     inkscape:window-x="293"
     inkscape:window-y="182"
     inkscape:window-maximized="0" />
  <g
     inkscape:label="Layer 1"
     inkscape:groupmode="layer"
     id="layer1">
    <g
       id="g3754"
       transform="matrix(1.2501168,0,0,1.1551801,-9.4601804,-37.563735)">
      <path
         inkscape:connector-curvature="0"
         id="path3743"
         d="m 8.6178609,271.64845 v -17.48964 l 1.0311966,-1.0312 c 0.8087425,-0.80874 1.3473155,-1.03119 2.4965815,-1.03119 1.149265,0 1.687838,0.22245 2.496581,1.03119 l 1.031196,1.0312 v 13.96186 13.96186 h 13.961859 13.96186 l 1.031194,1.03119 c 1.452104,1.4521 1.452104,3.54106 0,4.99316 l -1.031194,1.0312 H 26.107497 8.6178609 Z M 139.82406,288.10688 c -0.80875,-0.80873 -1.0312,-1.34731 -1.0312,-2.49658 0,-1.14926 0.22245,-1.68784 1.0312,-2.49658 l 1.03119,-1.03119 h 13.96186 13.96186 v -13.96186 -13.96186 l 1.0312,-1.0312 c 0.80874,-0.80874 1.34731,-1.03119 2.49658,-1.03119 1.14926,0 1.68784,0.22245 2.49658,1.03119 l 1.0312,1.0312 v 17.48964 17.48963 H 158.34489 140.85525 Z M 88.244419,276.07737 c -7.737726,-1.22318 -15.51263,-5.58403 -22.778642,-12.77627 -7.023393,-6.95209 -12.418177,-14.62136 -17.49654,-24.87327 -1.80255,-3.63887 -3.920821,-7.4298 -4.707276,-8.42427 -1.299884,-1.6437 -1.695856,-1.89392 -4.354258,-2.75138 -3.786265,-1.22126 -6.200146,-2.62505 -8.971068,-5.21711 -5.953478,-5.56919 -6.646804,-13.60103 -1.872669,-21.69397 1.754906,-2.97485 5.683022,-6.77028 8.513543,-8.22596 1.310793,-0.67412 2.457769,-1.46379 2.548838,-1.75483 0.09107,-0.29105 0.580694,-2.59292 1.088055,-5.11528 1.789402,-8.89602 5.668599,-18.72468 9.993281,-25.31982 2.370818,-3.61549 4.194027,-4.34156 6.348892,-2.52836 1.979436,1.66558 1.856902,2.76688 -0.800167,7.19178 -4.402437,7.33151 -7.75873,16.29018 -8.862159,23.65501 -0.399005,2.66316 -1.607164,7.18634 -2.139798,8.01111 -0.280494,0.43433 -1.167352,0.95794 -2.003915,1.18313 -2.884142,0.77637 -4.15138,1.50677 -6.018793,3.46909 -2.283243,2.39928 -3.522887,4.47654 -4.311601,7.22493 -1.604548,5.59127 1.891469,10.23101 9.474996,12.57476 5.130666,1.58566 7.316096,4.10059 12.255867,14.10365 3.529351,7.14695 6.361602,11.71393 10.48035,16.89948 7.085707,8.92098 15.069276,14.93757 22.303172,16.80814 2.989008,0.77291 7.970696,0.7692 10.936111,-0.008 5.552292,-1.45547 10.874072,-4.77548 16.413712,-10.23975 7.38979,-7.28925 13.05258,-15.56867 16.37856,-23.94667 2.17995,-5.49123 3.6495,-8.08446 5.83689,-10.30009 1.9251,-1.94993 2.50449,-2.29456 6.40161,-3.80778 3.84125,-1.49153 4.47342,-1.8631 6.10514,-3.5884 2.42153,-2.5604 3.34277,-4.64258 3.3491,-7.56956 0.0114,-5.2705 -4.60592,-10.67341 -9.80875,-11.47761 -1.74795,-0.27018 -2.87332,-1.49111 -3.40069,-3.68944 l -0.41381,-1.72494 -6.84344,-0.10887 -6.84344,-0.10886 -3.75751,-3.70417 c -2.06663,-2.03729 -3.67939,-3.46604 -3.58391,-3.175 0.0955,0.29104 0.38057,1.58219 0.63354,2.86922 0.42448,2.1596 0.40708,2.43165 -0.22568,3.52778 -0.55208,0.95636 -1.13003,1.33575 -2.96695,1.94764 -2.88936,0.96246 -7.95865,1.81367 -12.56535,2.1099 -3.503055,0.22527 -3.600732,0.21082 -4.473399,-0.66185 -1.06287,-1.06287 -0.932243,-0.56861 -4.085935,-15.45992 -3.995244,-18.86499 -8.168647,-35.39143 -9.204674,-36.44999 -0.77717,-0.79406 -9.640274,2.77114 -13.872168,5.58011 -2.807236,1.86334 -3.818008,2.14001 -5.281316,1.44562 -1.808325,-0.8581 -2.511855,-2.93433 -1.641546,-4.84446 0.809382,-1.7764 8.989794,-6.39299 14.465787,-8.16373 5.10498,-1.65076 8.283501,-2.14074 13.916173,-2.14522 9.746498,-0.008 17.825248,2.55152 26.458338,8.38175 4.03157,2.72267 10.86802,9.54931 14.01381,13.99371 2.78209,3.93056 6.7356,11.47908 8.49925,16.22777 1.25314,3.37414 3.15035,10.46023 3.58917,13.40556 0.4985,3.34593 0.83597,4.14458 1.85894,4.39931 1.83815,0.45773 4.84363,2.45795 7.03516,4.68208 4.25583,4.31915 6.40318,10.51684 5.49031,15.84616 -1.0552,6.16016 -5.66701,11.79304 -11.63055,14.20559 -7.26308,2.93826 -6.83918,2.47392 -10.69192,11.71227 -5.1502,12.34948 -15.71094,25.66626 -25.67122,32.37063 -3.20573,2.15781 -8.29097,4.51193 -11.542955,5.34359 -3.261871,0.83419 -8.617126,1.15144 -11.566496,0.68521 z m 19.048611,-88.23193 c 1.51164,-0.21901 2.92429,-0.49682 3.13921,-0.61736 0.27,-0.15143 -0.0801,-2.23633 -1.13278,-6.74555 -0.83796,-3.58952 -1.52975,-7.13392 -1.5373,-7.87644 -0.0263,-2.58556 2.90009,-4.27832 5.11544,-2.95898 0.3957,0.23566 3.99221,3.76222 7.99224,7.83681 l 7.27279,7.40833 3.28243,0.1067 c 1.80533,0.0587 3.87078,0.007 4.58988,-0.11419 l 1.30745,-0.22089 -0.65365,-2.35525 c -5.66937,-20.42808 -18.72608,-35.11504 -34.90628,-39.26464 -2.549602,-0.65388 -9.148486,-1.5196 -9.430832,-1.23726 -0.07482,0.0748 0.420391,2.02092 1.100465,4.32467 2.134814,7.23165 6.766947,27.03731 9.374767,40.08378 0.46247,2.31363 0.26494,2.24185 4.48617,1.63027 z m -17.889059,79.87842 c -0.291042,-0.10551 -1.04817,-0.68272 -1.68251,-1.28267 -1.423762,-1.3466 -2.047032,-3.38066 -1.508901,-4.92434 0.42708,-1.22512 0.734197,-0.83643 -6.677829,-8.45147 l -3.349029,-3.44076 -1.658479,0.22001 c -2.295507,0.30451 -4.455209,-0.75347 -5.563493,-2.72539 -0.673286,-1.19796 -0.777352,-1.76605 -0.599969,-3.2753 l 0.214609,-1.82597 -3.631106,-3.61875 -3.631107,-3.61875 -1.442127,0.23061 c -4.145096,0.66283 -7.499738,-3.36362 -5.930833,-7.11855 0.313196,-0.74958 0.864405,-1.68254 1.224905,-2.07324 0.642126,-0.69593 0.61232,-0.83768 -1.466004,-6.97218 -1.864307,-5.50278 -2.213063,-6.26196 -2.877153,-6.26312 -1.019401,-0.002 -2.878053,-1.1741 -3.594107,-2.26694 -1.55376,-2.37133 -1.226178,-5.04276 0.856605,-6.98555 1.27848,-1.19256 1.618812,-1.32953 3.303509,-1.32953 h 1.878189 l 2.415032,-3.37421 c 2.191816,-3.06233 2.378153,-3.45515 2.016026,-4.24993 -1.064016,-2.33526 -0.0852,-5.453 2.155409,-6.86541 0.94918,-0.59833 1.549774,-0.69575 3.442808,-0.55841 l 2.293055,0.16636 2.116667,-1.996 c 1.629985,-1.53707 2.17521,-2.31155 2.371287,-3.36834 0.309648,-1.66887 1.043976,-2.53455 2.580005,-3.04149 2.433176,-0.80301 5.156528,1.6133 4.548537,4.03573 -0.171605,0.68373 0.302796,1.52027 2.417251,4.2625 l 2.630759,3.4118 1.898301,0.0561 c 3.196378,0.0944 5.249693,2.19527 5.249693,5.37128 0,2.94107 -2.247173,5.19645 -5.281694,5.301 -1.536668,0.0529 -1.656238,0.13829 -3.141369,2.24235 -1.369254,1.93989 -1.498949,2.28597 -1.146528,3.05945 0.218553,0.47967 0.397369,1.41347 0.397369,2.07512 0,1.16062 0.131138,1.27669 3.723816,3.29613 l 3.723817,2.09316 1.693827,-0.71563 c 2.055449,-0.8684 3.747325,-0.65469 5.324715,0.6726 2.837737,2.3878 2.837737,5.96675 0,8.35454 -1.923867,1.61883 -4.127377,1.66285 -6.389624,0.12765 -0.671262,-0.45553 -1.453409,-0.75523 -1.738098,-0.66599 -0.284691,0.0892 -1.351057,0.46933 -2.369703,0.84465 l -1.852083,0.68239 v 1.58535 c 0,0.87194 -0.178146,1.93209 -0.395884,2.3559 -0.549794,1.07014 -2.124199,2.71084 -2.601302,2.71084 -1.149241,0 -1.582688,1.00805 -2.314963,5.38385 l -0.753382,4.5019 0.827902,0.68983 c 0.455348,0.37941 0.907281,0.69198 1.004295,0.6946 0.847069,0.0229 7.580718,-2.4218 7.763045,-2.81845 1.709046,-3.718 2.573591,-4.55051 5.010897,-4.82523 5.494468,-0.61931 8.202542,7.00658 3.448703,9.71149 -0.99115,0.56396 -1.048861,0.72062 -1.050971,2.85292 l -0.0021,2.25618 4.321528,-0.20398 c 5.268846,-0.24869 9.416416,-1.24223 12.788196,-3.06336 2.67421,-1.44438 3.64245,-1.44398 4.4162,0.002 0.5872,1.09718 -0.16849,2.75822 -1.37405,3.02022 -0.50902,0.11062 -1.63986,0.48596 -2.51298,0.83408 -4.60601,1.83648 -9.72139,2.83641 -14.510217,2.83641 h -3.128789 l 0.0021,2.91041 c 0.0021,2.84337 0.02586,2.92387 1.028069,3.494 3.226117,1.83529 3.261977,6.88624 0.06406,9.02259 -1.163631,0.77735 -3.607206,1.04909 -4.974915,0.55322 z m 0.352778,-16.99671 v -6.61929 l -1.499306,-0.98675 -1.499305,-0.98675 -3.527778,1.14369 c -4.045843,1.31164 -4.263005,1.44333 -4.524527,2.74372 -0.172709,0.85878 0.366318,1.52143 5.140967,6.32003 2.933647,2.94836 5.463512,5.28056 5.621927,5.18265 0.158411,-0.0979 0.288022,-3.15669 0.288022,-6.7973 z m -16.958818,-12.1727 c 0.150237,-0.41005 0.556574,-2.5329 0.90297,-4.71745 l 0.629814,-3.97192 -0.874039,-0.81003 c -0.480719,-0.44552 -1.037254,-1.10169 -1.236747,-1.45816 -0.34291,-0.61275 -0.565926,-0.57444 -4.085904,0.70196 -3.614095,1.31051 -3.729894,1.38579 -3.951834,2.56881 -0.248398,1.32409 -0.425249,1.08375 4.881693,6.63424 2.188676,2.28912 3.178715,2.56819 3.734047,1.05255 z m -0.87339,-15.4679 c 1.750731,-3.05262 4.267775,-4.15926 7.052296,-3.10059 0.71852,0.27318 1.52599,0.12138 3.874559,-0.72844 4.362936,-1.57869 4.346553,-1.64067 -1.233601,-4.66758 l -3.023672,-1.64017 -1.38605,0.72196 c -0.950733,0.49522 -1.802867,0.66994 -2.71321,0.55632 l -1.327161,-0.16564 -4.405478,5.7673 c -2.423012,3.17202 -4.405475,5.83735 -4.405475,5.92296 0,0.151 7.459264,-2.47689 7.567792,-2.66612 z m -6.420206,-4.83133 c 6.380406,-8.31646 6.502834,-7.85598 -2.248263,-8.45638 l -6.457728,-0.44305 -0.925897,1.13446 -0.925893,1.13445 2.12731,6.21294 c 2.026193,5.91762 2.412654,6.72463 3.225941,6.73642 0.194027,0.003 2.536066,-2.84067 5.20453,-6.31884 z m 5.171444,-12.68198 c 0.918619,-1.29008 2.743672,-2.16016 4.531088,-2.16016 1.305031,0 1.490719,-0.13663 2.882914,-2.12134 1.401071,-1.99736 1.464638,-2.19226 1.087653,-3.33454 -0.471364,-1.42825 -0.221319,-1.33918 -6.6127,-2.35559 l -5.021181,-0.79851 -0.976041,0.9105 c -1.41781,1.3226 -2.32386,1.70226 -4.062391,1.70226 -1.534862,0 -1.560223,0.0205 -3.776363,3.05971 -2.504669,3.43483 -2.712381,3.91639 -2.06182,4.78015 0.361894,0.48049 1.345226,0.67334 4.6912,0.92004 7.980232,0.5884 8.493259,0.55522 9.317641,-0.60252 z m 8.791617,-12.72687 c -0.06467,-0.18488 -1.261029,-1.83182 -2.658565,-3.65985 -3.282544,-4.29371 -3.501556,-4.33975 -6.736581,-1.41634 -3.489801,3.15366 -3.400309,3.28348 3.037847,4.40691 6.118465,1.06764 6.511114,1.10898 6.357299,0.66928 z m 21.427054,42.4679 c -0.81796,-0.81795 -0.67647,-1.76782 0.38807,-2.60519 1.06757,-0.83975 1.17881,-0.43554 -1.460651,-5.30711 -0.683323,-1.26118 -1.243139,-2.6389 -1.244039,-3.0616 -0.0032,-1.49706 1.92799,-2.48327 2.81257,-1.43631 0.93801,1.11019 4.24135,8.19733 4.24135,9.09958 0,1.45164 -0.61835,2.60303 -1.76019,3.27753 -1.24691,0.73657 -2.26236,0.74786 -2.97711,0.0331 z m 9.34849,-25.11076 c -2.54305,-1.29673 -3.52153,-4.35222 -2.20279,-6.87862 0.3798,-0.72761 0.58859,-1.32103 0.46399,-1.31873 -0.66807,0.0123 -3.98366,1.04454 -5.47669,1.70499 -2.69162,1.19063 -4.098479,0.89124 -4.098479,-0.87218 0,-1.17747 1.478709,-2.12149 5.248209,-3.35049 2.88932,-0.94203 4.07776,-1.13155 7.98096,-1.27274 5.34075,-0.19319 8.23673,0.33001 11.52361,2.0819 2.15755,1.14996 2.87744,2.29336 2.16245,3.43463 -0.56376,0.89988 -1.77605,0.86008 -3.43613,-0.11279 -1.39297,-0.81634 -4.95393,-1.97029 -6.08009,-1.97029 -0.27917,0 -0.12044,0.4774 0.4269,1.28396 2.21752,3.2677 -0.26815,7.88717 -4.24396,7.88717 -0.58209,0 -1.60268,-0.27757 -2.26798,-0.61681 z M 9.6490575,157.93189 8.6178609,156.90069 V 139.41105 121.92142 H 26.107497 43.597135 l 1.031194,1.03119 c 1.452104,1.45211 1.452104,3.54106 0,4.99317 l -1.031194,1.03119 H 29.635275 15.673416 v 13.96186 13.96186 l -1.031196,1.0312 c -1.452103,1.4521 -3.54106,1.4521 -4.9931625,0 z m 160.1611125,0 -1.0312,-1.0312 v -13.96186 -13.96186 h -13.96186 -13.96186 l -1.03119,-1.03119 c -1.45211,-1.45211 -1.45211,-3.54106 0,-4.99317 l 1.03119,-1.03119 h 17.48964 17.48964 v 17.48963 17.48964 l -1.0312,1.0312 c -1.4521,1.4521 -3.54106,1.4521 -4.99316,0 z"
         style="fill:#00ffff;stroke-width:0.35277778" />
    </g>
  </g>
</svg>
