<?xml version="1.0" encoding="UTF-8" standalone="no"?>
<!-- Created with Inkscape (http://www.inkscape.org/) -->

<svg
   xmlns:dc="http://purl.org/dc/elements/1.1/"
   xmlns:cc="http://creativecommons.org/ns#"
   xmlns:rdf="http://www.w3.org/1999/02/22-rdf-syntax-ns#"
   xmlns:svg="http://www.w3.org/2000/svg"
   xmlns="http://www.w3.org/2000/svg"
   xmlns:xlink="http://www.w3.org/1999/xlink"
   xmlns:sodipodi="http://sodipodi.sourceforge.net/DTD/sodipodi-0.dtd"
   xmlns:inkscape="http://www.inkscape.org/namespaces/inkscape"
   width="500mm"
   height="600mm"
   viewBox="80 150 55 130"
   version="1.1"
   id="svg8"
   inkscape:version="0.92.5 (2060ec1f9f, 2020-04-08)"
   sodipodi:docname="media.svg">
  <g>
    <path
       style="fill:#00ffff;stroke-width:0.1435049"
       d="m 53.084814,254.59186 c -4.144587,-0.71 -7.507534,-3.42764 -8.165177,-6.59839 -0.101179,-0.48783 -0.160671,-7.15463 -0.15991,-17.92001 0.0011,-16.2609 0.0157,-17.13438 0.282709,-16.97222 0.263961,0.16031 0.263836,0.15463 -0.002,-0.0911 -0.266856,-0.24666 -0.283512,-1.23649 -0.283512,-16.84915 0,-11.38659 0.05517,-16.82359 0.175949,-17.34137 0.345599,-1.48152 1.588975,-3.26627 3.030738,-4.35034 1.390048,-1.04517 3.537914,-1.9032 5.449909,-2.17712 1.357515,-0.19448 103.48213,-0.19448 104.83965,0 4.21901,0.60443 7.49049,3.09171 8.42935,6.40878 0.17678,0.6246 0.21673,6.89636 0.22062,34.63919 0.003,21.59572 -0.053,34.15296 -0.15441,34.63913 -0.62432,2.99166 -3.4191,5.42512 -7.47009,6.50433 -0.83968,0.22369 -2.9349,0.23377 -53.04028,0.25515 -42.89901,0.0183 -52.341486,-0.008 -53.153535,-0.14689 z m 1.251143,-0.28849 c 0.201515,-0.20162 0.195785,-0.20611 -0.06117,-0.048 -0.155931,0.096 -0.283511,0.19606 -0.283511,0.22246 0,0.10462 0.133038,0.0373 0.344678,-0.17446 z m 103.015413,-0.44789 c 0,-0.0191 -0.60145,-0.49104 -1.33655,-1.04871 l -1.33655,-1.01395 1.29225,1.04871 c 1.2002,0.97401 1.38085,1.10666 1.38085,1.01395 z m -41.77699,-0.31481 c 0.20152,-0.20162 0.19579,-0.20611 -0.0612,-0.048 -0.15594,0.096 -0.28352,0.19606 -0.28352,0.22246 0,0.10462 0.13304,0.0373 0.34468,-0.17446 z m -59.780365,-0.38135 c 0.201515,-0.20161 0.195785,-0.20611 -0.06117,-0.048 -0.155931,0.0959 -0.283511,0.19605 -0.283511,0.22245 0,0.10462 0.133038,0.0373 0.344678,-0.17446 z m 61.076415,-0.63558 c 0.20152,-0.20162 0.19579,-0.20611 -0.0612,-0.048 -0.15593,0.096 -0.28351,0.19606 -0.28351,0.22246 0,0.10462 0.13303,0.0373 0.34467,-0.17446 z m -59.780364,-0.38135 c 0.201515,-0.20161 0.195785,-0.20611 -0.06117,-0.048 -0.269862,0.16606 -0.355682,0.27044 -0.222344,0.27044 0.03364,0 0.161221,-0.1001 0.283511,-0.22245 z m 61.979194,-0.54025 h 1.02064 v -3.62281 -3.62281 h -4.69819 -4.69819 v 3.62281 3.62281 h 3.57371 c 2.81193,0 3.54933,0.0339 3.45937,0.1589 -0.0915,0.12712 -0.0707,0.12712 0.10384,0 0.12658,-0.0922 0.64667,-0.1589 1.23882,-0.1589 z m -56.653648,-3.62281 v -3.62281 H 57.717426 53.01924 v 3.62281 3.62281 h 4.698186 4.698186 z m 19.278764,0.0148 v -3.60797 l -3.199627,-0.0478 c -1.759795,-0.0263 -3.873978,-0.0272 -4.698186,-0.002 l -1.498559,0.0456 v 3.61016 3.61017 h 4.698186 4.698186 v -3.60797 z m 19.278764,-0.0148 v -3.62281 h -4.698187 -4.698186 v 3.62281 3.62281 h 4.698186 4.698187 z m 38.55753,0 v -3.62281 h -4.44193 c -2.44306,0 -4.55724,-0.0347 -4.69819,-0.0772 -0.23005,-0.0693 -0.25626,0.30115 -0.25626,3.62281 v 3.69997 h 4.69819 4.69819 z m 19.11675,0 v -3.62281 h -4.69818 -4.69819 v 3.62281 3.62281 h 4.69819 4.69818 z m -37.88883,1.49362 c 0.20151,-0.20162 0.19578,-0.20611 -0.0612,-0.048 -0.15593,0.096 -0.28351,0.19606 -0.28351,0.22246 0,0.10462 0.13304,0.0373 0.34468,-0.17446 z m 1.29605,-1.01693 c 0.20151,-0.20162 0.19578,-0.20611 -0.0612,-0.048 -0.15593,0.096 -0.28351,0.19606 -0.28351,0.22246 0,0.10462 0.13304,0.0373 0.34468,-0.17446 z m 40.16258,-19.73481 c 0.003,-6.64183 0.006,-13.16289 0.006,-14.49126 0,-1.32836 -0.003,-8.19264 -0.006,-15.25395 l -0.006,-12.83875 h -56.41873 l -56.418734,1e-5 0.03758,15.13292 c 0.02688,10.82539 -0.01231,15.10873 -0.137668,15.04794 -0.123366,-0.0598 -0.122501,-0.008 0.0029,0.17623 0.125958,0.18466 0.178176,3.78425 0.178176,12.28206 v 12.02085 h 56.378226 56.37823 l 0.006,-12.07605 z m -59.70502,3.628 c -8.624068,-0.93756 -15.96818,-5.38876 -19.368693,-11.73919 -0.648936,-1.21188 -1.387212,-3.52613 -1.597796,-5.00856 -0.676844,-4.76468 0.929053,-9.53946 4.468858,-13.28713 1.248611,-1.32193 2.637671,-2.4676 2.860697,-2.35945 0.0877,0.0425 0.114766,0.0206 0.06014,-0.0488 -0.225359,-0.28611 2.675426,-2.0796 4.971582,-3.07382 4.48252,-1.9409 9.532422,-2.73348 14.646332,-2.29874 10.66884,0.90697 19.27153,7.1744 21.36471,15.56512 0.35085,1.40641 0.39402,4.9953 0.0772,6.41938 -0.80438,3.61588 -3.05165,7.24377 -6.00247,9.69011 -0.70328,0.58305 -0.73541,0.59463 -1.05854,0.38135 -0.32863,-0.21691 -0.32925,-0.21623 -0.0447,0.0487 0.28354,0.26394 0.27117,0.28128 -0.7079,0.99251 -5.03271,3.65594 -12.64531,5.48212 -19.66948,4.7185 z M 90.463388,225.7022 c 0.201515,-0.20162 0.195785,-0.20611 -0.06117,-0.048 -0.155931,0.096 -0.283512,0.19606 -0.283512,0.22246 0,0.10462 0.133039,0.0373 0.344679,-0.17446 z m 1.296051,-1.01693 c 0.201515,-0.20162 0.195785,-0.20611 -0.06117,-0.048 -0.155931,0.096 -0.283511,0.19606 -0.283511,0.22246 0,0.10462 0.133038,0.0373 0.344678,-0.17446 z m 1.296051,-1.01693 c 0.201515,-0.20162 0.195785,-0.20611 -0.06117,-0.048 -0.155931,0.096 -0.283511,0.19606 -0.283511,0.22246 0,0.10462 0.133038,0.0373 0.344678,-0.17446 z m 9.36786,-1.74284 c 1.82674,-0.89336 3.92551,-1.93176 11.97434,-5.92451 4.05333,-2.01071 4.37222,-2.23224 4.08035,-2.8346 -0.12061,-0.2489 -3.4111,-1.98445 -6.73147,-3.55048 -0.17821,-0.0841 -0.36047,-0.18142 -0.40502,-0.21638 -0.0446,-0.035 -0.22681,-0.12785 -0.40502,-0.20644 -0.1782,-0.0786 -2.61864,-1.27425 -5.4232,-2.65705 -2.80455,-1.38279 -5.21308,-2.53754 -5.35229,-2.5661 -0.1392,-0.0286 -0.450844,0.0701 -0.692537,0.21929 -0.437613,0.27009 -0.439441,0.27809 -0.439441,1.92201 0,1.28373 -0.04503,1.63084 -0.202508,1.56108 -0.162006,-0.0718 -0.162006,-0.0555 0,0.0815 0.155479,0.13143 0.202508,1.4397 0.202508,5.63353 0,5.01766 -0.02308,5.48368 -0.283511,5.7244 -0.270011,0.24957 -0.270011,0.25385 0,0.0898 0.266797,-0.16211 0.283657,-0.0721 0.285992,1.52759 0.0013,0.93492 0.05604,1.76195 0.121504,1.83783 0.215401,0.24971 0.761435,0.42558 1.083213,0.34889 0.17389,-0.0414 1.15808,-0.48709 2.18709,-0.99032 z m -8.071808,0.72591 c 0.201515,-0.20162 0.195785,-0.20611 -0.06117,-0.048 -0.155932,0.096 -0.283512,0.19606 -0.283512,0.22246 0,0.10462 0.133038,0.0373 0.344679,-0.17446 z m 1.296051,-1.01693 c 0.201515,-0.20162 0.195785,-0.20611 -0.06117,-0.048 -0.155931,0.096 -0.283511,0.19606 -0.283511,0.22246 0,0.10462 0.133038,0.0373 0.344678,-0.17446 z m 1.296051,-1.01693 c 0.201515,-0.20162 0.195785,-0.20611 -0.06117,-0.048 -0.155931,0.096 -0.283511,0.19606 -0.283511,0.22246 0,0.10462 0.133038,0.0373 0.344678,-0.17446 z m 1.296052,-1.01693 c 0.201515,-0.20162 0.195785,-0.20611 -0.06117,-0.048 -0.155932,0.096 -0.283512,0.19606 -0.283512,0.22246 0,0.10462 0.133038,0.0373 0.344679,-0.17446 z m 14.256564,-11.18624 c 0.20152,-0.20161 0.19579,-0.20611 -0.0612,-0.048 -0.15593,0.096 -0.28351,0.19606 -0.28351,0.22245 0,0.10462 0.13304,0.0373 0.34468,-0.17446 z m 1.29605,-1.01693 c 0.20152,-0.20161 0.19579,-0.20611 -0.0612,-0.048 -0.15593,0.096 -0.28351,0.19606 -0.28351,0.22245 0,0.10462 0.13304,0.0373 0.34468,-0.17446 z m 1.29605,-1.01693 c 0.20152,-0.20161 0.19579,-0.20611 -0.0612,-0.048 -0.15594,0.096 -0.28352,0.19606 -0.28352,0.22245 0,0.10462 0.13304,0.0373 0.34468,-0.17446 z m 1.29605,-1.01693 c 0.20152,-0.20161 0.19579,-0.20611 -0.0612,-0.048 -0.15593,0.096 -0.28351,0.19605 -0.28351,0.22245 0,0.10462 0.13303,0.0373 0.34467,-0.17446 z m 1.29606,-1.01693 c 0.20151,-0.20161 0.19578,-0.20611 -0.0612,-0.048 -0.15593,0.096 -0.28351,0.19605 -0.28351,0.22245 0,0.10462 0.13304,0.0373 0.34468,-0.17446 z m 1.29605,-1.01693 c 0.20151,-0.20161 0.19578,-0.20611 -0.0612,-0.048 -0.15593,0.0959 -0.28351,0.19605 -0.28351,0.22245 0,0.10462 0.13304,0.0373 0.34468,-0.17446 z m 1.29605,-1.01693 c 0.20151,-0.20161 0.19578,-0.20611 -0.0612,-0.048 -0.15593,0.0959 -0.28351,0.19605 -0.28351,0.22245 0,0.10462 0.13304,0.0373 0.34468,-0.17446 z m 1.29605,-1.01693 c 0.20151,-0.20161 0.19578,-0.20611 -0.0612,-0.048 -0.15593,0.0959 -0.28351,0.19605 -0.28351,0.22245 0,0.10462 0.13304,0.0373 0.34468,-0.17446 z m 41.63565,14.61837 c 0.20151,-0.20161 0.19579,-0.20611 -0.0612,-0.048 -0.15593,0.0959 -0.28351,0.19606 -0.28351,0.22245 0,0.10463 0.13304,0.0373 0.34468,-0.17446 z M 45.647948,215.50112 c 0.161276,-0.13983 0.256777,-0.25424 0.212226,-0.25424 -0.04455,0 -0.212956,0.11441 -0.374232,0.25424 -0.161276,0.13982 -0.256777,0.25423 -0.212225,0.25423 0.04455,0 0.212956,-0.11441 0.374231,-0.25423 z m 118.852382,-0.60381 c 0.2015,-0.20161 0.19578,-0.20611 -0.0612,-0.048 -0.15593,0.0959 -0.28351,0.19606 -0.28351,0.22245 0,0.10462 0.13304,0.0373 0.34469,-0.17446 z m 1.59939,-0.0756 c 0,-0.0241 -0.16403,-0.15283 -0.36452,-0.28601 l -0.36451,-0.24216 0.30862,0.28601 c 0.29003,0.26878 0.42041,0.34388 0.42041,0.24216 z m -118.183682,-1.09997 0.972039,-0.81972 -1.060912,0.75932 c -0.583502,0.41762 -1.031845,0.80602 -0.996319,0.86311 0.03553,0.0571 0.07552,0.0843 0.08888,0.0604 0.01335,-0.0239 0.461696,-0.41226 0.996317,-0.86311 z m 117.940672,0.12689 c 0.16128,-0.13982 0.25678,-0.25423 0.21223,-0.25423 -0.0445,0 -0.21296,0.11441 -0.37424,0.25423 -0.16128,0.13983 -0.25678,0.25424 -0.21223,0.25424 0.0446,0 0.21296,-0.11441 0.37424,-0.25424 z m -1.21505,-0.17511 c 0,-0.0264 -0.12758,-0.1265 -0.28351,-0.22245 -0.25696,-0.15812 -0.26268,-0.15362 -0.0612,0.048 0.21164,0.21175 0.34468,0.27909 0.34468,0.17446 z m -1.29605,-1.01693 c 0,-0.0264 -0.12758,-0.1265 -0.28351,-0.22245 -0.25696,-0.15812 -0.26268,-0.15362 -0.0612,0.048 0.21165,0.21175 0.34469,0.27908 0.34469,0.17446 z M 62.415612,179.20941 v -3.62281 h -2.376838 c -2.028421,0 -2.425795,-0.0326 -2.710816,-0.22246 -0.318074,-0.21186 -0.323522,-0.21186 -0.114423,0 0.206673,0.20941 0.0901,0.22246 -1.987372,0.22246 H 53.01924 v 3.62281 3.62282 h 4.698186 4.698186 z m 19.278764,0 V 175.5866 H 76.99619 72.298004 v 3.62281 3.62282 h 4.698186 4.698186 z m 19.278764,0.006 v -3.61644 l -2.389595,-0.0382 c -1.314277,-0.021 -3.428461,-0.0208 -4.698186,3.8e-4 l -2.308592,0.0385 v 3.61611 3.61612 h 4.698186 4.698187 v -3.61645 z m 19.11676,1.7511 v -1.86534 l 0.44551,0.3077 0.44552,0.30771 -0.44552,-0.38784 c -0.43853,-0.38176 -0.44551,-0.41412 -0.44551,-2.06518 v -1.67733 h -2.13772 c -2.10423,0 -2.14547,-0.005 -2.63202,-0.34957 l -0.49429,-0.34957 0.39216,0.34957 0.39217,0.34957 h -2.45834 -2.45834 v 3.62281 3.62282 h 4.69819 4.69819 z m 19.44077,-1.75747 v -3.62281 h -4.69819 -4.69819 v 3.62281 3.62282 h 4.69819 4.69819 z m 19.11675,0.007 v -3.61555 l -2.06558,-0.039 c -1.13607,-0.0215 -3.25025,-0.0221 -4.69818,-0.001 l -2.63261,0.0377 v 3.61689 3.61688 h 4.69819 4.69818 z m -101.740026,-4.1727 c 0,-0.0188 -0.747254,-0.60512 -1.660565,-1.30294 l -1.660566,-1.26878 1.617025,1.30294 c 1.5019,1.21018 1.704106,1.36073 1.704106,1.26878 z m 98.682576,-0.18829 c 0.20151,-0.20162 0.19578,-0.20611 -0.0612,-0.048 -0.15593,0.096 -0.28351,0.19606 -0.28351,0.22246 0,0.10462 0.13304,0.0373 0.34468,-0.17446 z m -41.3323,-0.46112 c 0,-0.0264 -0.12758,-0.1265 -0.28352,-0.22246 -0.25695,-0.15811 -0.26268,-0.15362 -0.0612,0.048 0.21164,0.21174 0.34468,0.27908 0.34468,0.17446 z m 42.62835,-0.55581 c 0.20151,-0.20162 0.19578,-0.20611 -0.0612,-0.048 -0.15593,0.096 -0.28351,0.19606 -0.28351,0.22246 0,0.10462 0.13304,0.0373 0.34468,-0.17446 z M 112.96161,173.377 c 0,-0.0264 -0.12758,-0.1265 -0.28351,-0.22246 -0.25695,-0.15811 -0.26268,-0.15362 -0.0612,0.048 0.21164,0.21174 0.34467,0.27908 0.34467,0.17446 z m 45.22046,-0.55581 c 0.20151,-0.20162 0.19578,-0.20611 -0.0612,-0.048 -0.15593,0.096 -0.28351,0.19606 -0.28351,0.22246 0,0.10462 0.13304,0.0373 0.34468,-0.17446 z"/>
  </g>
</svg>
